HIERARCHY
ROOT root     
{
	OFFSET 0.0000 0.0000 0.0000
	CHANNELS 6 Xposition Yposition Zposition Zrotation Yrotation Xrotation
	JOINT pelvis   
	{
		OFFSET 0.0000 0.0000 0.0000
		CHANNELS 3 Zrotation Yrotation Xrotation
		JOINT thorax   
		{
			OFFSET 0.0000 23.0750 -5.0000
			CHANNELS 3 Zrotation Yrotation Xrotation
			JOINT rclavicle
			{
				OFFSET 0.0000 28.0009 0.0000
				CHANNELS 3 Zrotation Yrotation Xrotation
				JOINT rhumerus 
				{
					OFFSET -18.5725 5.5939 0.0000
					CHANNELS 3 Zrotation Yrotation Xrotation
					JOINT rradius  
					{
						OFFSET -24.8459 0.0000 0.0000
						CHANNELS 3 Zrotation Yrotation Xrotation
						JOINT rhand    
						{
							OFFSET -24.5477 0.0000 0.0000
							CHANNELS 3 Zrotation Yrotation Xrotation
							End Site
							{
								OFFSET -8.1826 0.0000 0.0000
							}
						}
					}
				}
			}
			JOINT lclavicle
			{
				OFFSET 0.0000 28.0009 0.0000
				CHANNELS 3 Zrotation Yrotation Xrotation
				JOINT lhumerus 
				{
					OFFSET 18.5725 5.5939 0.0000
					CHANNELS 3 Zrotation Yrotation Xrotation
					JOINT lradius  
					{
						OFFSET 24.8459 0.0000 0.0000
						CHANNELS 3 Zrotation Yrotation Xrotation
						JOINT lhand    
						{
							OFFSET 24.5477 0.0000 0.0000
							CHANNELS 3 Zrotation Yrotation Xrotation
							End Site
							{
								OFFSET 8.1826 0.0000 0.0000
							}
						}
					}
				}
			}
			JOINT head     
			{
				OFFSET 0.0000 35.2030 0.0000
				CHANNELS 3 Zrotation Yrotation Xrotation
				End Site
				{
					OFFSET 0.0000 11.7343 0.0000
				}
			}
		}
		JOINT rfemur   
		{
			OFFSET -8.2817 0.0000 0.0000
			CHANNELS 3 Zrotation Yrotation Xrotation
			JOINT rtibia   
			{
				OFFSET 0.0000 -43.3627 0.0000
				CHANNELS 3 Zrotation Yrotation Xrotation
				JOINT rfoot    
				{
					OFFSET 0.0000 -38.2947 0.0000
					CHANNELS 3 Zrotation Yrotation Xrotation
					JOINT rtoes    
					{
						OFFSET 0.0000 0.0000 16.6054
						CHANNELS 3 Zrotation Yrotation Xrotation
						End Site
						{
							OFFSET 0.0000 0.0000 5.5351
						}
					}
				}
			}
		}
		JOINT lfemur   
		{
			OFFSET 8.2817 0.0000 0.0000
			CHANNELS 3 Zrotation Yrotation Xrotation
			JOINT ltibia   
			{
				OFFSET 0.0000 -43.3627 0.0000
				CHANNELS 3 Zrotation Yrotation Xrotation
				JOINT lfoot    
				{
					OFFSET 0.0000 -38.2947 0.0000
					CHANNELS 3 Zrotation Yrotation Xrotation
					JOINT ltoes    
					{
						OFFSET 0.0000 0.0000 16.6054
						CHANNELS 3 Zrotation Yrotation Xrotation
						End Site
						{
							OFFSET 0.0000 0.0000 5.5351
						}
					}
				}
			}
		}
	}
}
MOTION
Frames: 13
Frame Time: .0333333
0.7403 77.835 -1.4517 17.5189 84.4637 47.5639 0 -0 0 7.39191 1.70034 20.1064 15.2099 -8.46036 1.36882e-05 48.3997 4.2872 5.58031 -180 89.7723 -180 -9.21296 3.79744 -0.306096 -15.9603 17.5128 6.30074e-05 -58.8345 18.9247 22.788 0 -58.7285 -0 -6.30651 6.72985 -0.371204 0.0929983 -7.19875 -11.0302 6.87357 -8.4521 -49.7579 -0 -0 56.3916 2.24478e-05 -9.2425 -23.1022 3.65328 -9.05846e-07 -9.10302 -8.53229 6.76013 -69.6067 -0 -0 69.5115 -1.1405e-06 18.4711 -10.7342 -3.5601 1.04222e-05 -12.4475 
1.6467 77.921 -1.3765 17.2659 84.4874 47.3049 0 -0 0 6.98833 1.95194 20.0948 15.0764 -8.47521 -2.81737e-05 47.9583 4.36392 5.55879 -180 89.0994 -180 -9.20783 3.75058 -0.302104 -16.011 17.6954 -6.63603e-05 -58.7612 19.3393 22.8242 -5.62281e-07 -58.4081 1.00592e-06 -6.49388 6.84937 -0.389001 0.108104 -7.19978 -11.0659 6.79538 -8.52478 -48.7794 -0 -0 55.8064 9.50576e-06 -9.27542 -23.3489 3.70332 -4.14077e-06 -9.59267 -9.15233 6.80458 -70.6438 -0 -0 67.2896 5.53039e-05 18.4514 -10.8982 -3.60951 5.78229e-07 -11.8009 
2.5778 77.994 -1.3012 17.0355 84.516 47.0526 0 -0 0 6.58394 2.18392 20.0616 14.9621 -8.50037 7.97475e-06 47.5303 4.41722 5.52325 -180 88.4184 -180 -9.19537 3.70126 -0.29779 -16.0467 17.8801 8.76546e-05 -58.7008 19.7361 22.8262 0 -58.0736 0 -6.6843 7.00847 -0.409797 0.143301 -7.19092 -11.1008 6.7149 -8.5997 -47.7609 -0 -0 55.2114 1.43157e-05 -9.32043 -23.6022 3.75962 -5.91407e-06 -10.1502 -9.82311 6.85742 -71.5572 -0 -0 64.9321 7.02344e-05 18.3156 -11.0175 -3.61986 -6.44302e-06 -11.3846 
3.5337 78.052 -1.2261 16.8148 84.564 46.7933 0 -0 0 6.17975 2.39692 20.0028 14.8676 -8.53767 3.16161e-06 47.1187 4.44936 5.47523 -180 87.7467 -180 -9.17382 3.65054 -0.293002 -16.0696 18.0669 0.000107578 -58.6582 20.1149 22.7951 -5.45853e-07 -57.7286 9.90256e-07 -6.87608 7.20543 -0.433505 0.195411 -7.17269 -11.1324 6.631 -8.67571 -46.7034 -0 -0 54.6117 -2.04001e-05 -9.38392 -23.8539 3.82349 -1.00611e-06 -10.8147 -10.5306 6.90888 -72.3452 -0 -0 62.4469 9.73219e-06 18.0532 -11.0772 -3.58332 1.65642e-06 -11.2515 
4.5133 78.096 -1.1515 16.6046 84.6329 46.5309 0 -0 0 5.78266 2.59374 19.9139 14.7924 -8.5894 6.0807e-06 46.7264 4.45973 5.41448 -180 87.1156 -180 -9.14042 3.59441 -0.287406 -16.0763 18.2593 8.47211e-06 -58.6342 20.4718 22.7318 0 -57.371 0 -7.06644 7.43007 -0.4594 0.258704 -7.14926 -11.1586 6.54704 -8.75155 -45.6163 -0 -0 54.0116 4.92333e-05 -9.47206 -24.1081 3.89849 -4.0554e-06 -11.4697 -11.2529 6.94626 -73.017 -0 -0 59.8501 7.93227e-05 17.6591 -11.0716 -3.4986 -6.48806e-06 -11.3466 
5.5156 78.126 -1.0779 16.3913 84.7143 46.2595 0 -0 0 5.3942 2.77367 19.7959 14.7351 -8.65452 -3.65733e-05 46.3589 4.44651 5.34198 -180 86.4809 -180 -9.09647 3.53442 -0.2812 -16.0666 18.4584 -5.52796e-05 -58.63 20.8091 22.6373 -5.28962e-07 -57.0032 9.74176e-07 -7.24912 7.67022 -0.486606 0.330406 -7.12188 -11.1824 6.46382 -8.8267 -44.5036 -0 -0 53.4105 4.21543e-05 -9.58898 -24.3556 3.98538 1.44586e-05 -12.1424 -11.9656 6.95714 -73.5748 -0 -0 57.1578 5.1362e-05 17.1444 -10.9948 -3.36707 -1.4015e-05 -11.625 
6.5401 78.141 -1.0047 16.2057 84.8201 46.0054 0 -0 0 5.0114 2.93486 19.6481 14.6884 -8.73193 1.05695e-05 46.0299 4.41146 5.26246 -180 85.8613 -180 -9.04598 3.47991 -0.275399 -16.0442 18.6584 -9.68251e-05 -58.6425 21.1385 22.5014 0 -56.6452 -0 -7.41867 7.91753 -0.514104 0.41191 -7.08931 -11.2085 6.38019 -8.90085 -43.3665 -0 -0 52.8114 5.25811e-05 -9.73615 -24.5797 4.08229 -2.01666e-05 -12.9677 -12.6444 6.93229 -74.0218 -0 -0 54.3863 -4.97477e-06 16.5217 -10.8229 -3.18801 -1.86931e-05 -12.3011 
7.5854 78.141 -0.9321 16.0132 84.9347 45.7453 0 -0 0 4.64224 3.08036 19.4733 14.6545 -8.82082 -1.28451e-05 45.7324 4.34905 5.17381 -180 85.2603 -180 -8.99334 3.42392 -0.269299 -16.0066 18.8605 6.36871e-05 -58.6757 21.4555 22.3303 0 -56.2895 0 -7.56938 8.15028 -0.540087 0.499006 -7.0573 -11.241 6.30154 -8.9751 -42.2086 -0 -0 52.2133 -1.26564e-06 -9.91095 -24.7902 4.19025 8.13027e-06 -13.7624 -13.2552 6.8609 -74.3623 -0 -0 51.5545 -5.15418e-05 15.8186 -10.5756 -2.97661 1.43019e-05 -13.1608 
8.6516 78.126 -0.8602 15.7885 85.0732 45.4455 0 -0 0 4.28717 3.21224 19.275 14.6301 -8.91801 -3.43036e-05 45.4726 4.25606 5.07827 -180 84.6803 -180 -8.94454 3.36643 -0.263399 -15.9552 19.0645 -4.03792e-05 -58.7292 21.7613 22.1316 -5.05641e-07 -55.9443 9.52098e-07 -7.69643 8.35142 -0.562795 0.591901 -7.02735 -11.2851 6.22924 -9.05059 -41.0286 -0 -0 51.6153 3.16674e-05 -10.1065 -24.9838 4.30531 -2.27728e-05 -14.5557 -13.7682 6.73711 -74.5946 -0 -0 48.6794 3.57163e-05 15.0635 -10.271 -2.74742 -1.40035e-05 -14.1149 
9.7396 78.094 -0.7877 15.497 85.2276 45.0678 0 -0 0 3.94422 3.33088 19.0624 14.6103 -9.02199 3.33799e-05 45.2567 4.13537 4.98154 -180 84.1104 -180 -8.90629 3.31338 -0.258093 -15.8932 19.2672 3.91462e-05 -58.7938 22.0634 21.8998 0 -55.6233 0 -7.79965 8.5134 -0.581389 0.694313 -6.99787 -11.3477 6.16416 -9.12725 -39.8207 -0 -0 51.0097 2.32883e-05 -10.3147 -25.1426 4.42169 2.8107e-06 -15.5047 -14.1589 6.56388 -74.7137 -0 -0 45.7809 3.57366e-05 14.2858 -9.90134 -2.50725 -5.29757e-06 -15.3972 
10.851 78.047 -0.715 15.0869 85.4004 44.5563 0 -0 0 3.61803 3.44516 18.8425 14.5976 -9.12916 -5.17429e-05 45.0783 3.98057 4.88382 -180 83.5303 -180 -8.8838 3.25731 -0.253096 -15.8168 19.4685 0.000168242 -58.8739 22.358 21.6477 -4.92646e-07 -55.3248 9.39853e-07 -7.87787 8.61911 -0.594599 0.803788 -6.97351 -11.4292 6.10946 -9.20594 -38.5792 -0 -0 50.3971 -4.57353e-05 -10.5223 -25.2858 4.53621 -4.30887e-06 -16.4155 -14.3982 6.34221 -74.7201 -0 -0 42.8831 -3.29362e-06 13.5217 -9.51282 -2.27596 6.77729e-06 -16.7276 
11.986 77.983 -0.6417 14.4588 85.5745 43.8074 0 -0 0 3.30841 3.56212 18.6251 14.588 -9.23632 8.30338e-05 44.9361 3.79098 4.78892 -180 82.9621 -180 -8.88048 3.19729 -0.248303 -15.7255 19.6705 3.4904e-05 -58.9695 22.6435 21.3845 0 -55.0491 0 -7.93321 8.66194 -0.601803 0.920888 -6.95391 -11.5306 6.06543 -9.28708 -37.295 -0 -0 49.7713 4.92487e-05 -10.7153 -25.4112 4.6421 -3.70646e-06 -17.3526 -14.4645 6.08176 -74.6061 -0 -0 40.0145 3.4529e-05 12.8005 -9.13263 -2.06545 -1.42103e-05 -18.064 
13.15 77.9 -0.5663 13.4863 85.744 42.6872 0 -0 0 3.01503 3.68704 18.4212 14.5834 -9.34372 4.86078e-05 44.832 3.57443 4.70504 -180 82.3935 -180 -8.89615 3.13716 -0.244094 -15.6258 19.8701 -8.315e-05 -59.0679 22.9277 21.111 0 -54.8152 0 -7.97366 8.64828 -0.603915 1.04699 -6.93719 -11.6522 6.03378 -9.36883 -35.9536 -0 -0 49.1277 -1.18392e-05 -10.8835 -25.5053 4.73272 -1.58136e-06 -18.4422 -14.3552 5.8011 -74.3746 -0 -0 37.2099 1.8773e-06 12.1419 -8.77057 -1.87886 2.32277e-06 -19.4818 
